<mxfile host="app.diagrams.net" modified="2021-04-12T14:05:55.345Z" agent="5.0 (Windows NT 10.0; Win64; x64) AppleWebKit/537.36 (KHTML, like Gecko) Chrome/89.0.4389.114 Safari/537.36" etag="sp85voWA75Gdxt6Sfcm6" version="14.5.10" type="github" pages="2">
  <diagram id="4UHbxce3KpwwnYZbzkx7" name="Page-2">
    <mxGraphModel dx="2026" dy="611" grid="1" gridSize="10" guides="1" tooltips="1" connect="1" arrows="1" fold="1" page="1" pageScale="1" pageWidth="827" pageHeight="1169" math="0" shadow="0">
      <root>
        <mxCell id="4l4oDC8cHzK3VJKQ7OqO-0" />
        <mxCell id="4l4oDC8cHzK3VJKQ7OqO-1" parent="4l4oDC8cHzK3VJKQ7OqO-0" />
        <mxCell id="4l4oDC8cHzK3VJKQ7OqO-2" value="" style="whiteSpace=wrap;html=1;aspect=fixed;" parent="4l4oDC8cHzK3VJKQ7OqO-1" vertex="1">
          <mxGeometry x="140" y="30" width="565" height="565" as="geometry" />
        </mxCell>
        <mxCell id="4l4oDC8cHzK3VJKQ7OqO-3" value="Receipts Use case&amp;nbsp;" style="text;html=1;resizable=0;autosize=1;align=center;verticalAlign=middle;points=[];fillColor=none;strokeColor=none;rounded=0;" parent="4l4oDC8cHzK3VJKQ7OqO-1" vertex="1">
          <mxGeometry x="-5" y="10" width="120" height="20" as="geometry" />
        </mxCell>
        <mxCell id="4l4oDC8cHzK3VJKQ7OqO-4" value="System boundary" style="text;html=1;resizable=0;autosize=1;align=center;verticalAlign=middle;points=[];fillColor=none;strokeColor=none;rounded=0;" parent="4l4oDC8cHzK3VJKQ7OqO-1" vertex="1">
          <mxGeometry x="350" y="50" width="110" height="20" as="geometry" />
        </mxCell>
        <mxCell id="0XkAT8IyqFOkE62B-cu1-0" value="Actor" style="shape=umlActor;verticalLabelPosition=bottom;verticalAlign=top;html=1;outlineConnect=0;" parent="4l4oDC8cHzK3VJKQ7OqO-1" vertex="1">
          <mxGeometry x="30" y="100" width="90" height="230" as="geometry" />
        </mxCell>
        <mxCell id="bSmuL1Sp37XiWTe8M-mu-0" value="Employer" style="text;html=1;resizable=0;autosize=1;align=center;verticalAlign=middle;points=[];fillColor=none;strokeColor=none;rounded=0;" parent="4l4oDC8cHzK3VJKQ7OqO-1" vertex="1">
          <mxGeometry x="40" y="350" width="70" height="20" as="geometry" />
        </mxCell>
        <mxCell id="iJ1DeXamAmYQ3ZbnRXAA-0" value="Actor" style="shape=umlActor;verticalLabelPosition=bottom;verticalAlign=top;html=1;outlineConnect=0;" parent="4l4oDC8cHzK3VJKQ7OqO-1" vertex="1">
          <mxGeometry x="720" y="190" width="90" height="230" as="geometry" />
        </mxCell>
        <mxCell id="pwXxYnY4KYpbyUwbm-rr-0" value="Secretary" style="text;html=1;resizable=0;autosize=1;align=center;verticalAlign=middle;points=[];fillColor=none;strokeColor=none;rounded=0;" parent="4l4oDC8cHzK3VJKQ7OqO-1" vertex="1">
          <mxGeometry x="730" y="440" width="70" height="20" as="geometry" />
        </mxCell>
        <mxCell id="J4H8vMVQGXhD_ejGg6Uj-0" value="" style="ellipse;whiteSpace=wrap;html=1;" parent="4l4oDC8cHzK3VJKQ7OqO-1" vertex="1">
          <mxGeometry x="280" y="290" width="120" height="80" as="geometry" />
        </mxCell>
        <mxCell id="J4H8vMVQGXhD_ejGg6Uj-1" value="" style="ellipse;whiteSpace=wrap;html=1;" parent="4l4oDC8cHzK3VJKQ7OqO-1" vertex="1">
          <mxGeometry x="280" y="400" width="120" height="80" as="geometry" />
        </mxCell>
        <mxCell id="J4H8vMVQGXhD_ejGg6Uj-2" value="" style="ellipse;whiteSpace=wrap;html=1;" parent="4l4oDC8cHzK3VJKQ7OqO-1" vertex="1">
          <mxGeometry x="280" y="500" width="120" height="80" as="geometry" />
        </mxCell>
        <mxCell id="J4H8vMVQGXhD_ejGg6Uj-3" value="" style="ellipse;whiteSpace=wrap;html=1;" parent="4l4oDC8cHzK3VJKQ7OqO-1" vertex="1">
          <mxGeometry x="470" y="260" width="90" height="50" as="geometry" />
        </mxCell>
        <mxCell id="J4H8vMVQGXhD_ejGg6Uj-4" value="" style="ellipse;whiteSpace=wrap;html=1;" parent="4l4oDC8cHzK3VJKQ7OqO-1" vertex="1">
          <mxGeometry x="467.5" y="200" width="80" height="50" as="geometry" />
        </mxCell>
        <mxCell id="J4H8vMVQGXhD_ejGg6Uj-5" value="" style="ellipse;whiteSpace=wrap;html=1;" parent="4l4oDC8cHzK3VJKQ7OqO-1" vertex="1">
          <mxGeometry x="470" y="50" width="120" height="80" as="geometry" />
        </mxCell>
        <mxCell id="J4H8vMVQGXhD_ejGg6Uj-6" value="" style="ellipse;whiteSpace=wrap;html=1;" parent="4l4oDC8cHzK3VJKQ7OqO-1" vertex="1">
          <mxGeometry x="280" y="190" width="120" height="80" as="geometry" />
        </mxCell>
        <mxCell id="J4H8vMVQGXhD_ejGg6Uj-7" value="" style="ellipse;whiteSpace=wrap;html=1;" parent="4l4oDC8cHzK3VJKQ7OqO-1" vertex="1">
          <mxGeometry x="280" y="80" width="120" height="80" as="geometry" />
        </mxCell>
        <mxCell id="yE8ossc-JHhed-A5V61u-0" value="" style="endArrow=none;html=1;entryX=0;entryY=0.3333333333333333;entryDx=0;entryDy=0;entryPerimeter=0;" parent="4l4oDC8cHzK3VJKQ7OqO-1" source="J4H8vMVQGXhD_ejGg6Uj-7" target="iJ1DeXamAmYQ3ZbnRXAA-0" edge="1">
          <mxGeometry width="50" height="50" relative="1" as="geometry">
            <mxPoint x="390" y="10" as="sourcePoint" />
            <mxPoint x="720" y="260" as="targetPoint" />
          </mxGeometry>
        </mxCell>
        <mxCell id="k6McR88THhzEGL6984rD-0" value="" style="endArrow=classic;html=1;exitX=1;exitY=0.5;exitDx=0;exitDy=0;" parent="4l4oDC8cHzK3VJKQ7OqO-1" source="J4H8vMVQGXhD_ejGg6Uj-7" edge="1">
          <mxGeometry width="50" height="50" relative="1" as="geometry">
            <mxPoint x="420" y="140" as="sourcePoint" />
            <mxPoint x="470" y="90" as="targetPoint" />
          </mxGeometry>
        </mxCell>
        <mxCell id="k6McR88THhzEGL6984rD-1" value="" style="endArrow=classic;html=1;exitX=1;exitY=0.5;exitDx=0;exitDy=0;entryX=0;entryY=0.5;entryDx=0;entryDy=0;" parent="4l4oDC8cHzK3VJKQ7OqO-1" source="J4H8vMVQGXhD_ejGg6Uj-6" target="J4H8vMVQGXhD_ejGg6Uj-4" edge="1">
          <mxGeometry width="50" height="50" relative="1" as="geometry">
            <mxPoint x="387.5" y="245" as="sourcePoint" />
            <mxPoint x="457.5" y="215" as="targetPoint" />
          </mxGeometry>
        </mxCell>
        <mxCell id="k6McR88THhzEGL6984rD-2" value="" style="endArrow=classic;html=1;startArrow=none;entryX=0;entryY=0.5;entryDx=0;entryDy=0;" parent="4l4oDC8cHzK3VJKQ7OqO-1" source="m5B9m2FSiRjdfmZnff4k-6" target="J4H8vMVQGXhD_ejGg6Uj-3" edge="1">
          <mxGeometry width="50" height="50" relative="1" as="geometry">
            <mxPoint x="400" y="305" as="sourcePoint" />
            <mxPoint x="457.5" y="290" as="targetPoint" />
          </mxGeometry>
        </mxCell>
        <mxCell id="k6McR88THhzEGL6984rD-3" value="" style="endArrow=none;html=1;exitX=0.933;exitY=0.763;exitDx=0;exitDy=0;exitPerimeter=0;" parent="4l4oDC8cHzK3VJKQ7OqO-1" source="J4H8vMVQGXhD_ejGg6Uj-0" edge="1">
          <mxGeometry width="50" height="50" relative="1" as="geometry">
            <mxPoint x="670" y="320" as="sourcePoint" />
            <mxPoint x="720" y="270" as="targetPoint" />
          </mxGeometry>
        </mxCell>
        <mxCell id="k6McR88THhzEGL6984rD-4" value="" style="endArrow=none;html=1;entryX=0;entryY=0.3333333333333333;entryDx=0;entryDy=0;entryPerimeter=0;" parent="4l4oDC8cHzK3VJKQ7OqO-1" source="J4H8vMVQGXhD_ejGg6Uj-1" target="iJ1DeXamAmYQ3ZbnRXAA-0" edge="1">
          <mxGeometry width="50" height="50" relative="1" as="geometry">
            <mxPoint x="390" y="460" as="sourcePoint" />
            <mxPoint x="440" y="410" as="targetPoint" />
          </mxGeometry>
        </mxCell>
        <mxCell id="k6McR88THhzEGL6984rD-5" value="" style="endArrow=none;html=1;exitX=0.975;exitY=0.325;exitDx=0;exitDy=0;exitPerimeter=0;" parent="4l4oDC8cHzK3VJKQ7OqO-1" source="J4H8vMVQGXhD_ejGg6Uj-2" edge="1">
          <mxGeometry width="50" height="50" relative="1" as="geometry">
            <mxPoint x="390" y="460" as="sourcePoint" />
            <mxPoint x="710" y="270" as="targetPoint" />
          </mxGeometry>
        </mxCell>
        <mxCell id="k6McR88THhzEGL6984rD-6" value="" style="endArrow=none;html=1;exitX=1;exitY=0.3333333333333333;exitDx=0;exitDy=0;exitPerimeter=0;" parent="4l4oDC8cHzK3VJKQ7OqO-1" source="0XkAT8IyqFOkE62B-cu1-0" edge="1">
          <mxGeometry width="50" height="50" relative="1" as="geometry">
            <mxPoint x="230" y="170" as="sourcePoint" />
            <mxPoint x="280" y="120" as="targetPoint" />
          </mxGeometry>
        </mxCell>
        <mxCell id="m5B9m2FSiRjdfmZnff4k-0" value="" style="endArrow=none;html=1;" parent="4l4oDC8cHzK3VJKQ7OqO-1" edge="1">
          <mxGeometry width="50" height="50" relative="1" as="geometry">
            <mxPoint x="120" y="180" as="sourcePoint" />
            <mxPoint x="280" y="230" as="targetPoint" />
          </mxGeometry>
        </mxCell>
        <mxCell id="m5B9m2FSiRjdfmZnff4k-1" value="" style="endArrow=none;html=1;exitX=1;exitY=0.3333333333333333;exitDx=0;exitDy=0;exitPerimeter=0;" parent="4l4oDC8cHzK3VJKQ7OqO-1" source="0XkAT8IyqFOkE62B-cu1-0" edge="1">
          <mxGeometry width="50" height="50" relative="1" as="geometry">
            <mxPoint x="230" y="490" as="sourcePoint" />
            <mxPoint x="280" y="440" as="targetPoint" />
          </mxGeometry>
        </mxCell>
        <mxCell id="m5B9m2FSiRjdfmZnff4k-2" value="" style="endArrow=none;html=1;" parent="4l4oDC8cHzK3VJKQ7OqO-1" edge="1">
          <mxGeometry width="50" height="50" relative="1" as="geometry">
            <mxPoint x="120" y="180" as="sourcePoint" />
            <mxPoint x="280" y="320" as="targetPoint" />
          </mxGeometry>
        </mxCell>
        <mxCell id="m5B9m2FSiRjdfmZnff4k-3" value="" style="endArrow=none;html=1;exitX=1;exitY=0.3333333333333333;exitDx=0;exitDy=0;exitPerimeter=0;" parent="4l4oDC8cHzK3VJKQ7OqO-1" source="0XkAT8IyqFOkE62B-cu1-0" edge="1">
          <mxGeometry width="50" height="50" relative="1" as="geometry">
            <mxPoint x="230" y="585" as="sourcePoint" />
            <mxPoint x="280" y="535" as="targetPoint" />
          </mxGeometry>
        </mxCell>
        <mxCell id="m5B9m2FSiRjdfmZnff4k-4" value="&amp;lt;&amp;lt;includes&amp;gt;&amp;gt;" style="text;html=1;resizable=0;autosize=1;align=center;verticalAlign=middle;points=[];fillColor=none;strokeColor=none;rounded=0;" parent="4l4oDC8cHzK3VJKQ7OqO-1" vertex="1">
          <mxGeometry x="400" y="110" width="90" height="20" as="geometry" />
        </mxCell>
        <mxCell id="m5B9m2FSiRjdfmZnff4k-5" value="&amp;lt;&amp;lt;includes&amp;gt;&amp;gt;" style="text;html=1;resizable=0;autosize=1;align=center;verticalAlign=middle;points=[];fillColor=none;strokeColor=none;rounded=0;" parent="4l4oDC8cHzK3VJKQ7OqO-1" vertex="1">
          <mxGeometry x="390" y="210" width="90" height="20" as="geometry" />
        </mxCell>
        <mxCell id="m5B9m2FSiRjdfmZnff4k-6" value="&amp;lt;&amp;lt;includes&amp;gt;&amp;gt;" style="text;html=1;resizable=0;autosize=1;align=center;verticalAlign=middle;points=[];fillColor=none;strokeColor=none;rounded=0;" parent="4l4oDC8cHzK3VJKQ7OqO-1" vertex="1">
          <mxGeometry x="377.5" y="260" width="90" height="20" as="geometry" />
        </mxCell>
        <mxCell id="m5B9m2FSiRjdfmZnff4k-7" value="" style="endArrow=none;html=1;" parent="4l4oDC8cHzK3VJKQ7OqO-1" source="J4H8vMVQGXhD_ejGg6Uj-6" target="m5B9m2FSiRjdfmZnff4k-6" edge="1">
          <mxGeometry width="50" height="50" relative="1" as="geometry">
            <mxPoint x="387.557439346278" y="254.38843043398867" as="sourcePoint" />
            <mxPoint x="457.5" y="290" as="targetPoint" />
          </mxGeometry>
        </mxCell>
        <mxCell id="nm6HE8bs33TmZ-5fpAi--0" value="U1&amp;nbsp;&lt;br&gt;Sign up" style="text;html=1;resizable=0;autosize=1;align=center;verticalAlign=middle;points=[];fillColor=none;strokeColor=none;rounded=0;" parent="4l4oDC8cHzK3VJKQ7OqO-1" vertex="1">
          <mxGeometry x="310" y="100" width="60" height="30" as="geometry" />
        </mxCell>
        <mxCell id="nm6HE8bs33TmZ-5fpAi--1" value="Login" style="text;html=1;resizable=0;autosize=1;align=center;verticalAlign=middle;points=[];fillColor=none;strokeColor=none;rounded=0;" parent="4l4oDC8cHzK3VJKQ7OqO-1" vertex="1">
          <mxGeometry x="510" y="75" width="40" height="20" as="geometry" />
        </mxCell>
        <mxCell id="nm6HE8bs33TmZ-5fpAi--2" value="U2&amp;nbsp;&lt;br&gt;Capture receipts" style="text;html=1;resizable=0;autosize=1;align=center;verticalAlign=middle;points=[];fillColor=none;strokeColor=none;rounded=0;" parent="4l4oDC8cHzK3VJKQ7OqO-1" vertex="1">
          <mxGeometry x="290" y="215" width="100" height="30" as="geometry" />
        </mxCell>
        <mxCell id="nm6HE8bs33TmZ-5fpAi--3" value="U3&amp;nbsp;&lt;br&gt;View receipts" style="text;html=1;resizable=0;autosize=1;align=center;verticalAlign=middle;points=[];fillColor=none;strokeColor=none;rounded=0;" parent="4l4oDC8cHzK3VJKQ7OqO-1" vertex="1">
          <mxGeometry x="295" y="315" width="90" height="30" as="geometry" />
        </mxCell>
        <mxCell id="nm6HE8bs33TmZ-5fpAi--4" value="Edit profile" style="text;html=1;resizable=0;autosize=1;align=center;verticalAlign=middle;points=[];fillColor=none;strokeColor=none;rounded=0;" parent="4l4oDC8cHzK3VJKQ7OqO-1" vertex="1">
          <mxGeometry x="310" y="430" width="70" height="20" as="geometry" />
        </mxCell>
        <mxCell id="nm6HE8bs33TmZ-5fpAi--5" value="Search for receipts" style="text;html=1;resizable=0;autosize=1;align=center;verticalAlign=middle;points=[];fillColor=none;strokeColor=none;rounded=0;" parent="4l4oDC8cHzK3VJKQ7OqO-1" vertex="1">
          <mxGeometry x="280" y="530" width="120" height="20" as="geometry" />
        </mxCell>
        <mxCell id="nm6HE8bs33TmZ-5fpAi--6" value="Manual add&amp;nbsp;" style="text;html=1;strokeColor=none;fillColor=none;align=center;verticalAlign=middle;whiteSpace=wrap;rounded=0;" parent="4l4oDC8cHzK3VJKQ7OqO-1" vertex="1">
          <mxGeometry x="490" y="215" width="40" height="20" as="geometry" />
        </mxCell>
        <mxCell id="nm6HE8bs33TmZ-5fpAi--7" value="Picture add" style="text;html=1;strokeColor=none;fillColor=none;align=center;verticalAlign=middle;whiteSpace=wrap;rounded=0;" parent="4l4oDC8cHzK3VJKQ7OqO-1" vertex="1">
          <mxGeometry x="495" y="275" width="40" height="20" as="geometry" />
        </mxCell>
        <mxCell id="nm6HE8bs33TmZ-5fpAi--8" value="" style="ellipse;whiteSpace=wrap;html=1;" parent="4l4oDC8cHzK3VJKQ7OqO-1" vertex="1">
          <mxGeometry x="495" y="490" width="90" height="70" as="geometry" />
        </mxCell>
        <mxCell id="nm6HE8bs33TmZ-5fpAi--9" value="Compare&lt;br&gt;&amp;nbsp;receipts" style="text;html=1;resizable=0;autosize=1;align=center;verticalAlign=middle;points=[];fillColor=none;strokeColor=none;rounded=0;" parent="4l4oDC8cHzK3VJKQ7OqO-1" vertex="1">
          <mxGeometry x="510" y="510" width="60" height="30" as="geometry" />
        </mxCell>
        <mxCell id="nm6HE8bs33TmZ-5fpAi--10" value="" style="endArrow=classic;html=1;exitX=0;exitY=0.5;exitDx=0;exitDy=0;entryX=1.025;entryY=0.75;entryDx=0;entryDy=0;entryPerimeter=0;" parent="4l4oDC8cHzK3VJKQ7OqO-1" source="nm6HE8bs33TmZ-5fpAi--8" target="nm6HE8bs33TmZ-5fpAi--5" edge="1">
          <mxGeometry width="50" height="50" relative="1" as="geometry">
            <mxPoint x="390" y="480" as="sourcePoint" />
            <mxPoint x="440" y="430" as="targetPoint" />
          </mxGeometry>
        </mxCell>
        <mxCell id="nm6HE8bs33TmZ-5fpAi--11" value="&amp;lt;&amp;lt;extends&amp;gt;&amp;gt;" style="text;html=1;strokeColor=none;fillColor=none;align=center;verticalAlign=middle;whiteSpace=wrap;rounded=0;" parent="4l4oDC8cHzK3VJKQ7OqO-1" vertex="1">
          <mxGeometry x="430" y="515" width="40" height="20" as="geometry" />
        </mxCell>
      </root>
    </mxGraphModel>
  </diagram>
  <diagram id="rW1qZnZUw7WaN9fZbaCU" name="Page-3">
    <mxGraphModel dx="1019" dy="519" grid="1" gridSize="10" guides="1" tooltips="1" connect="1" arrows="1" fold="1" page="1" pageScale="1" pageWidth="827" pageHeight="1169" math="0" shadow="0">
      <root>
        <mxCell id="mqVQcO1iFkUzZ_5pgZHV-0" />
        <mxCell id="mqVQcO1iFkUzZ_5pgZHV-1" parent="mqVQcO1iFkUzZ_5pgZHV-0" />
        <mxCell id="mqVQcO1iFkUzZ_5pgZHV-2" value="&lt;table border=&quot;1&quot; width=&quot;100%&quot; cellpadding=&quot;4&quot; style=&quot;width: 100% ; height: 100% ; border-collapse: collapse&quot;&gt;&lt;tbody&gt;&lt;tr&gt;&lt;th align=&quot;center&quot;&gt;User&lt;/th&gt;&lt;/tr&gt;&lt;tr&gt;&lt;td align=&quot;center&quot;&gt;-userid: int&lt;br&gt;- emailaddress : String&lt;br&gt;- password : String&lt;/td&gt;&lt;/tr&gt;&lt;tr&gt;&lt;td align=&quot;center&quot;&gt;+register()&lt;br&gt;+login()&lt;br&gt;+updateProfile()&lt;br&gt;+viewReceipts()&lt;br&gt;&lt;br&gt;&lt;/td&gt;&lt;/tr&gt;&lt;/tbody&gt;&lt;/table&gt;" style="text;html=1;strokeColor=none;fillColor=none;overflow=fill;" vertex="1" parent="mqVQcO1iFkUzZ_5pgZHV-1">
          <mxGeometry x="340" y="20" width="160" height="160" as="geometry" />
        </mxCell>
        <mxCell id="mqVQcO1iFkUzZ_5pgZHV-3" value="&lt;table border=&quot;1&quot; width=&quot;100%&quot; height=&quot;100%&quot; cellpadding=&quot;4&quot; style=&quot;width:100%;height:100%;border-collapse:collapse;&quot;&gt;&lt;tr&gt;&lt;th align=&quot;center&quot;&gt;&lt;b&gt;Title&lt;/b&gt;&lt;/th&gt;&lt;/tr&gt;&lt;tr&gt;&lt;td align=&quot;center&quot;&gt;Section 1.1&#xa;Section 1.2&#xa;Section 1.3&lt;/td&gt;&lt;/tr&gt;&lt;tr&gt;&lt;td align=&quot;center&quot;&gt;Section 2.1&#xa;Section 2.2&#xa;Section 2.3&lt;/td&gt;&lt;/tr&gt;&lt;/table&gt;" style="text;html=1;strokeColor=none;fillColor=none;overflow=fill;" vertex="1" parent="mqVQcO1iFkUzZ_5pgZHV-1">
          <mxGeometry x="170" y="620" width="160" height="140" as="geometry" />
        </mxCell>
        <mxCell id="mqVQcO1iFkUzZ_5pgZHV-4" value="&lt;table border=&quot;1&quot; width=&quot;100%&quot; height=&quot;100%&quot; cellpadding=&quot;4&quot; style=&quot;width:100%;height:100%;border-collapse:collapse;&quot;&gt;&lt;tr&gt;&lt;th align=&quot;center&quot;&gt;&lt;b&gt;Title&lt;/b&gt;&lt;/th&gt;&lt;/tr&gt;&lt;tr&gt;&lt;td align=&quot;center&quot;&gt;Section 1.1&#xa;Section 1.2&#xa;Section 1.3&lt;/td&gt;&lt;/tr&gt;&lt;tr&gt;&lt;td align=&quot;center&quot;&gt;Section 2.1&#xa;Section 2.2&#xa;Section 2.3&lt;/td&gt;&lt;/tr&gt;&lt;/table&gt;" style="text;html=1;strokeColor=none;fillColor=none;overflow=fill;" vertex="1" parent="mqVQcO1iFkUzZ_5pgZHV-1">
          <mxGeometry x="320" y="400" width="160" height="140" as="geometry" />
        </mxCell>
        <mxCell id="mqVQcO1iFkUzZ_5pgZHV-5" value="&lt;table border=&quot;1&quot; width=&quot;100%&quot; height=&quot;100%&quot; cellpadding=&quot;4&quot; style=&quot;width:100%;height:100%;border-collapse:collapse;&quot;&gt;&lt;tr&gt;&lt;th align=&quot;center&quot;&gt;&lt;b&gt;Title&lt;/b&gt;&lt;/th&gt;&lt;/tr&gt;&lt;tr&gt;&lt;td align=&quot;center&quot;&gt;Section 1.1&#xa;Section 1.2&#xa;Section 1.3&lt;/td&gt;&lt;/tr&gt;&lt;tr&gt;&lt;td align=&quot;center&quot;&gt;Section 2.1&#xa;Section 2.2&#xa;Section 2.3&lt;/td&gt;&lt;/tr&gt;&lt;/table&gt;" style="text;html=1;strokeColor=none;fillColor=none;overflow=fill;" vertex="1" parent="mqVQcO1iFkUzZ_5pgZHV-1">
          <mxGeometry x="20" y="400" width="160" height="140" as="geometry" />
        </mxCell>
        <mxCell id="mqVQcO1iFkUzZ_5pgZHV-6" value="&lt;table border=&quot;1&quot; width=&quot;100%&quot; cellpadding=&quot;4&quot; style=&quot;width: 100% ; height: 100% ; border-collapse: collapse&quot;&gt;&lt;tbody&gt;&lt;tr&gt;&lt;th align=&quot;center&quot;&gt;Employer&lt;/th&gt;&lt;/tr&gt;&lt;tr&gt;&lt;td align=&quot;center&quot;&gt;- username: String&lt;br&gt;&lt;br&gt;&lt;br&gt;&lt;/td&gt;&lt;/tr&gt;&lt;tr&gt;&lt;td align=&quot;center&quot;&gt;+addReceipts()&lt;br&gt;+editReceipts()&lt;br&gt;&lt;br&gt;&lt;/td&gt;&lt;/tr&gt;&lt;/tbody&gt;&lt;/table&gt;" style="text;html=1;strokeColor=none;fillColor=none;overflow=fill;" vertex="1" parent="mqVQcO1iFkUzZ_5pgZHV-1">
          <mxGeometry x="160" y="210" width="160" height="140" as="geometry" />
        </mxCell>
        <mxCell id="mqVQcO1iFkUzZ_5pgZHV-7" value="&lt;table border=&quot;1&quot; width=&quot;100%&quot; cellpadding=&quot;4&quot; style=&quot;width: 100% ; height: 100% ; border-collapse: collapse&quot;&gt;&lt;tbody&gt;&lt;tr&gt;&lt;th align=&quot;center&quot;&gt;Secretary&lt;/th&gt;&lt;/tr&gt;&lt;tr&gt;&lt;td align=&quot;center&quot;&gt;-username : String&lt;br&gt;&lt;br&gt;&lt;br&gt;&lt;/td&gt;&lt;/tr&gt;&lt;tr&gt;&lt;td align=&quot;center&quot;&gt;&lt;br&gt;&lt;br&gt;&lt;br&gt;&lt;/td&gt;&lt;/tr&gt;&lt;/tbody&gt;&lt;/table&gt;" style="text;html=1;strokeColor=none;fillColor=none;overflow=fill;" vertex="1" parent="mqVQcO1iFkUzZ_5pgZHV-1">
          <mxGeometry x="550" y="200" width="160" height="140" as="geometry" />
        </mxCell>
      </root>
    </mxGraphModel>
  </diagram>
</mxfile>
